<svg width="343" height="332" viewBox="0 0 343 332" fill="none" xmlns="http://www.w3.org/2000/svg">
<g clip-path="url(#clip0_320_374)">
<path d="M86.832 244.362C44.5171 268.19 68.3449 326.938 82.3129 329.403C93.0712 331.301 128.439 330.213 145.58 329.403L278.276 231.216L200.63 220.534C176.802 220.534 120.684 225.3 86.832 244.362Z" fill="white"/>
<path d="M145.58 329.403C144.968 329.433 146.243 329.371 145.58 329.403ZM145.58 329.403C128.439 330.213 93.0712 331.301 82.3129 329.403C68.3449 326.938 44.5171 268.19 86.832 244.362C120.684 225.3 176.802 220.534 200.63 220.534L278.276 231.216L145.58 329.403Z" stroke="black" stroke-width="1.62158"/>
<path d="M98.3341 252.427C127.585 246.84 151.33 264.021 159.547 273.31C160.919 271.39 162.403 269.493 164.006 267.627C161.48 256.535 112.302 244.621 98.3341 252.427Z" fill="#000001"/>
<path d="M142.614 330.619C143.652 330.573 144.643 330.528 145.58 330.484L253.962 250.288C249.188 248.673 236.882 243.705 225.855 236.75C151.046 245.615 139.191 303.023 142.614 330.619Z" fill="#0E1729"/>
<path d="M266.361 330.483C320.179 313.229 278.275 235.172 278.275 232.296L258.144 229.527C155.602 235.857 140.375 299.469 145.579 330.483L162.884 473.039H207.477L211.311 330.483H266.361Z" fill="white" stroke="black" stroke-width="1.62158"/>
<path d="M200.63 300.905C207.203 307.478 210.49 323.363 211.312 330.484H217.473C215.83 322.404 210.161 305.177 200.63 300.905Z" fill="#000001"/>
<rect x="16.1074" y="330" width="351" height="2" fill="black"/>
<path d="M208.968 81.3776C206.804 78.6236 201.178 70.1647 195.985 58.3616C197.165 56.9845 199.408 52.8138 198.936 47.1484C192.798 46.2041 189.079 32.9847 187.986 26.493C196.136 21.9719 189.192 9.91147 191.854 9.37877C194.804 8.78832 202.476 11.7391 202.476 19.4111C202.476 27.0831 215.621 23.4617 219.001 21.7717C227.263 17.6406 224.312 27.6739 220.771 37.116C218.883 40.4209 225.492 46.7552 229.033 49.5093C229.977 58.9517 221.558 73.5089 217.23 79.6072C217.82 97.3118 217.939 132.721 213.689 132.721C210.857 127.056 209.362 96.1315 208.968 81.3776Z" fill="white" stroke="black" stroke-width="1.08105"/>
<path d="M203.656 27.6699C202.672 28.6535 201.295 31.4469 203.656 34.7518" stroke="#241715" stroke-width="0.540525"/>
<path d="M208.376 36.5266C207.983 38.6905 206.252 41.956 202.475 37.7069" stroke="#241715" stroke-width="0.540525"/>
<path d="M221.36 29.4421C222.147 27.2782 223.13 23.0684 220.77 23.5405" stroke="#241715" stroke-width="0.540525"/>
<path d="M198.305 53.6389C198.826 51.8371 199.142 49.6366 198.935 47.1475C202.205 48.9182 207.786 49.5084 219.589 41.2457C220.061 47.3833 205.596 52.0652 198.305 53.6389Z" fill="black"/>
<path d="M228.443 9.37822C232.574 19.4109 223.131 32.9844 220.771 37.1155C224.311 27.6733 226.672 17.6401 219 21.7712C215.673 23.5628 202.476 27.0826 202.476 19.4106C202.476 11.7385 194.804 8.78777 191.853 9.37822C189.191 9.91092 196.136 21.9714 187.986 26.4924C187.102 26.9826 186.041 27.3841 184.771 27.6727C187.722 23.5416 186.542 24.1318 184.181 14.0992C181.82 4.06653 192.443 1.70621 202.476 0.525906C212.508 -0.654403 224.311 -0.654403 228.443 9.37822Z" fill="black"/>
<path d="M283.916 73.1157C276.362 63.2011 244.179 53.2471 229.032 49.5095C229.976 58.952 221.557 73.5091 217.229 79.6074C217.819 97.312 217.937 132.721 213.688 132.721C210.855 127.056 209.36 96.1317 208.967 81.3778C206.803 78.6238 201.177 70.1649 195.984 58.3618C194.803 61.9027 162.935 86.0991 157.624 93.7711C152.312 101.443 150.542 175.212 150.542 181.704C150.542 188.196 148.181 232.457 167.656 232.457C183.236 232.457 246.933 234.621 279.195 235.408C283.916 185.442 291.47 83.0303 283.916 73.1157Z" fill="black"/>
<path d="M150.543 181.7C182.805 175.012 247.329 167.655 247.329 191.733C247.329 215.811 217.428 229.419 202.477 233.213M247.329 54.7615C243.394 56.5505 235.054 64.9679 233.165 84.3249C230.804 108.521 223.227 116.783 217.088 116.783M211.064 117.964C206.038 120.718 195.041 122.803 191.264 109.111C186.543 91.9969 176.693 82.5545 165.684 85.5052M265.033 61.3093C263.853 60.8098 244.968 73.7021 243.198 103.21C241.427 132.718 222.542 188.192 183.592 158.684C168.837 143.93 154.621 134.685 152.233 135.668M195.985 233.035C201.297 227.923 210.503 216.047 204.838 209.438C199.172 202.828 168.183 211.798 153.397 217.11M286.751 88.456C274.003 96.3247 250.516 121.387 258.542 158.684C265.624 179.93 278.565 177.766 284.151 174.028M282.015 202.946C274.387 203.047 259.84 209.591 262.673 234.965" stroke="white" stroke-width="0.540525"/>
<path d="M213.689 232.452V133.306" stroke="#027269" stroke-width="0.540525"/>
<path d="M214.043 231.486L211.142 209.922C204.547 211.118 190.811 212.277 180.201 213.283C169.093 214.336 166.294 220.168 173.75 222.03C169.85 221.544 165.483 226.921 171.706 229.328C167.141 230.95 176.171 232.759 180.596 232.768C178.063 233.151 173.671 233.857 174.268 236.541C174.865 239.225 201.033 234.29 214.043 231.486Z" fill="white"/>
<path d="M214.043 231.487L211.143 209.922C209.608 210.2 207.687 210.477 205.509 210.75L198.911 234.49C204.455 233.482 209.912 232.377 214.043 231.487Z" fill="black"/>
<path d="M180.777 232.927L189.954 230.344" stroke="black" stroke-width="0.540525"/>
<path d="M173.809 227.164L189.896 225.211" stroke="black" stroke-width="0.540525"/>
<path d="M173.75 222.03L190.181 219.188" stroke="black" stroke-width="0.540525"/>
<path d="M301.426 212.549C302.854 189.948 304.412 76.0491 278.918 69.9092C249.448 62.8121 249.834 171.434 262.628 196.214L202.452 202.332L208.098 239.877C237.355 237.834 299.062 249.949 301.426 212.549Z" fill="black"/>
<path d="M278.917 69.9088C249.448 62.8118 249.834 171.434 262.628 196.214L202.452 202.331" stroke="white" stroke-width="0.540525"/>
<path d="M291.193 86.2772C282.087 87.2674 261.849 92.5247 256.885 104.848M296.858 106.107C288.652 109.696 269.439 121.78 267.016 134.184C264.593 146.588 290.259 142.4 300.636 140.1M301.265 161.818C292.64 165.845 262.406 168.518 255.626 159.3M301.58 200.533C292.746 195.173 267.317 184.472 260.662 188.573M236.741 198.645C232.964 206.828 238.879 236.92 255.626 240.192" stroke="white" stroke-width="0.540525"/>
<path d="M43.3077 155.671H144.655C146.43 155.671 148.026 156.757 148.677 158.409L178.777 234.707C179.428 236.359 181.023 237.444 182.799 237.444H261.63C263.08 237.444 264.255 238.62 264.255 240.07C264.255 241.52 263.08 242.696 261.63 242.696H74.388C72.6151 242.696 71.0218 241.614 70.3683 239.966L39.2881 161.59C38.1624 158.751 40.254 155.671 43.3077 155.671Z" fill="white" stroke="black" stroke-width="1.62158"/>
<path d="M148.215 157.159L181.555 237.444H179.303C177.557 237.444 175.982 236.394 175.311 234.783L143.758 159.013C143.096 157.423 144.264 155.671 145.986 155.671C146.961 155.671 147.841 156.258 148.215 157.159Z" fill="black"/>
<path d="M70.3683 239.966L39.2881 161.59C38.1624 158.751 40.254 155.671 43.3078 155.671H51.1222C51.7654 155.671 52.3987 155.815 52.9829 156.084C55.749 157.358 60.3703 159.361 68.0447 163.239C93.7196 176.211 96.9628 203.778 91.5575 217.291C87.1755 228.246 145.097 239.57 167.853 242.696H74.3879C72.6151 242.696 71.0218 241.614 70.3683 239.966Z" fill="black"/>
<ellipse cx="6.44706" cy="7.41412" rx="6.44706" ry="7.41412" transform="matrix(-0.936312 0.351169 0.351169 0.936312 108.782 182.698)" fill="black"/>
</g>
<defs>
<clipPath id="clip0_320_374">
<rect width="479" height="332" fill="white" transform="translate(-129)"/>
</clipPath>
</defs>
</svg>
